HIERARCHY
ROOT hip
{
  OFFSET 0 0 0
  CHANNELS 6 Xposition Yposition Zposition Zrotation Yrotation Xrotation
  JOINT abdomen
  {
    OFFSET 0 20.6881 -0.73152
    CHANNELS 3 Zrotation Xrotation Yrotation
    JOINT chest
    {
      OFFSET 0 11.7043 -0.48768
      CHANNELS 3 Zrotation Xrotation Yrotation
      JOINT neck
      {
        OFFSET 0 22.1894 -2.19456
        CHANNELS 3 Zrotation Xrotation Yrotation
        JOINT head
        {
          OFFSET -0.24384 7.07133 1.2192
          CHANNELS 3 Zrotation Xrotation Yrotation
          JOINT leftEye
          {
            OFFSET 4.14528 8.04674 8.04672
            CHANNELS 3 Zrotation Xrotation Yrotation
            End Site
            {
              OFFSET 1 0 0
            }
          }
          JOINT rightEye
          {
            OFFSET -3.6576 8.04674 8.04672
            CHANNELS 3 Zrotation Xrotation Yrotation
            End Site
            {
              OFFSET 1 0 0
            }
          }
        }
      }
      JOINT rCollar
      {
        OFFSET -2.68224 19.2634 -4.8768
        CHANNELS 3 Zrotation Xrotation Yrotation
        JOINT rShldr
        {
          OFFSET -8.77824 -1.95073 1.46304
          CHANNELS 3 Zrotation Xrotation Yrotation
          JOINT rForeArm
          {
            OFFSET -28.1742 -1.7115 0.48768
            CHANNELS 3 Zrotation Xrotation Yrotation
            JOINT rHand
            {
              OFFSET -22.5879 0.773209 7.07136
              CHANNELS 3 Zrotation Xrotation Yrotation
              JOINT rThumb1
              {
                OFFSET -1.2192 -0.487915 3.41376
                CHANNELS 3 Zrotation Xrotation Yrotation
                JOINT rThumb2
                {
                  OFFSET -3.37035 -0.52449 3.41376
                  CHANNELS 3 Zrotation Xrotation Yrotation
                  End Site
                  {
                    OFFSET -1.78271 -1.18214 1.43049
                  }
                }
              }
              JOINT rIndex1
              {
                OFFSET -7.75947 0.938293 5.60832
                CHANNELS 3 Zrotation Xrotation Yrotation
                JOINT rIndex2
                {
                  OFFSET -2.54057 -0.884171 1.56538
                  CHANNELS 3 Zrotation Xrotation Yrotation
                  End Site
                  {
                    OFFSET -1.62519 -0.234802 1.16502
                  }
                }
              }
              JOINT rMid1
              {
                OFFSET -8.24714 1.18213 3.41376
                CHANNELS 3 Zrotation Xrotation Yrotation
                JOINT rMid2
                {
                  OFFSET -3.10165 -0.590103 1.0647
                  CHANNELS 3 Zrotation Xrotation Yrotation
                  End Site
                  {
                    OFFSET -2.48547 -0.328903 0.83742
                  }
                }
              }
              JOINT rRing1
              {
                OFFSET -8.82822 0.546677 1.51678
                CHANNELS 3 Zrotation Xrotation Yrotation
                JOINT rRing2
                {
                  OFFSET -2.60934 -0.819778 -0.0198488
                  CHANNELS 3 Zrotation Xrotation Yrotation
                  End Site
                  {
                    OFFSET -2.33842 -0.294052 0.168128
                  }
                }
              }
              JOINT rPinky1
              {
                OFFSET -8.27202 -0.0477905 -0.4584
                CHANNELS 3 Zrotation Xrotation Yrotation
                JOINT rPinky2
                {
                  OFFSET -1.82734 -0.647385 -0.700984
                  CHANNELS 3 Zrotation Xrotation Yrotation
                  End Site
                  {
                    OFFSET -1.69225 -0.51767 -0.607171
                  }
                }
              }
            }
          }
        }
      }
      JOINT lCollar
      {
        OFFSET 2.68224 19.2634 -4.8768
        CHANNELS 3 Zrotation Xrotation Yrotation
        JOINT lShldr
        {
          OFFSET 8.77824 -1.95073 1.46304
          CHANNELS 3 Zrotation Xrotation Yrotation
          JOINT lForeArm
          {
            OFFSET 28.1742 -1.7115 0.48768
            CHANNELS 3 Zrotation Xrotation Yrotation
            JOINT lHand
            {
              OFFSET 22.5879 0.773209 7.07136
              CHANNELS 3 Zrotation Xrotation Yrotation
              JOINT lThumb1
              {
                OFFSET 1.2192 -0.487915 3.41376
                CHANNELS 3 Zrotation Xrotation Yrotation
                JOINT lThumb2
                {
                  OFFSET 3.37035 -0.52449 3.41376
                  CHANNELS 3 Zrotation Xrotation Yrotation
                  End Site
                  {
                    OFFSET 1.78271 -1.18214 1.43049
                  }
                }
              }
              JOINT lIndex1
              {
                OFFSET 7.75947 0.938293 5.60832
                CHANNELS 3 Zrotation Xrotation Yrotation
                JOINT lIndex2
                {
                  OFFSET 2.54057 -0.884171 1.56538
                  CHANNELS 3 Zrotation Xrotation Yrotation
                  End Site
                  {
                    OFFSET 1.62519 -0.234802 1.16502
                  }
                }
              }
              JOINT lMid1
              {
                OFFSET 8.24714 1.18213 3.41376
                CHANNELS 3 Zrotation Xrotation Yrotation
                JOINT lMid2
                {
                  OFFSET 3.10165 -0.590103 1.0647
                  CHANNELS 3 Zrotation Xrotation Yrotation
                  End Site
                  {
                    OFFSET 2.48547 -0.328903 0.83742
                  }
                }
              }
              JOINT lRing1
              {
                OFFSET 8.82822 0.546677 1.51678
                CHANNELS 3 Zrotation Xrotation Yrotation
                JOINT lRing2
                {
                  OFFSET 2.60934 -0.819778 -0.0198488
                  CHANNELS 3 Zrotation Xrotation Yrotation
                  End Site
                  {
                    OFFSET 2.33842 -0.294052 0.168128
                  }
                }
              }
              JOINT lPinky1
              {
                OFFSET 8.27202 -0.0477905 -0.4584
                CHANNELS 3 Zrotation Xrotation Yrotation
                JOINT lPinky2
                {
                  OFFSET 1.82734 -0.647385 -0.700984
                  CHANNELS 3 Zrotation Xrotation Yrotation
                  End Site
                  {
                    OFFSET 1.69225 -0.51767 -0.607171
                  }
                }
              }
            }
          }
        }
      }
    }
  }
  JOINT rButtock
  {
    OFFSET -8.77824 4.35084 1.2192
    CHANNELS 3 Zrotation Xrotation Yrotation
    JOINT rThigh
    {
      OFFSET 0 -1.70687 -2.19456
      CHANNELS 3 Zrotation Xrotation Yrotation
      JOINT rShin
      {
        OFFSET 0 -36.8199 0.73152
        CHANNELS 3 Zrotation Xrotation Yrotation
        JOINT rFoot
        {
          OFFSET 0.73152 -45.1104 -5.12064
          CHANNELS 3 Zrotation Xrotation Yrotation
          End Site
          {
            OFFSET -1.1221 -3.69964 12.103
          }
        }
      }
    }
  }
  JOINT lButtock
  {
    OFFSET 8.77824 4.35084 1.2192
    CHANNELS 3 Zrotation Xrotation Yrotation
    JOINT lThigh
    {
      OFFSET 0 -1.70687 -2.19456
      CHANNELS 3 Zrotation Xrotation Yrotation
      JOINT lShin
      {
        OFFSET 0 -36.8199 0.73152
        CHANNELS 3 Zrotation Xrotation Yrotation
        JOINT lFoot
        {
          OFFSET -0.73152 -45.1104 -5.12064
          CHANNELS 3 Zrotation Xrotation Yrotation
          End Site
          {
            OFFSET 1.1221 -3.69964 12.103
          }
        }
      }
    }
  }
}
MOTION
Frames:	4
Frame Time:	0.03333
-21.4075 59.7399 -11.8679 -13.395099999999998 -24.4502 8.5294 10.3088 7.85405 7.83657 -0.677758 -6.14162 2.163 -0.670785 12.8366 2.72033 3.10443 -25.0923 6.1221 -0.0 0.0 0.0 -0.0 0.0 0.0 -9.49156e-15 -2.2013599999999997e-13 1.33752e-13 70.65449999999998 45.066100000000006 -17.0467 -28.0974 -39.8663 83.6822 -0.0372454 5.50156 0.775601 1.8076000000000005e-09 -1.27203e-08 -2.93209e-09 3.11339e-09 -2.18662e-08 -5.07796e-09 1.8076099999999995e-09 -1.27203e-08 -2.93211e-09 7.730909999999999 5.47488 0.417314 1.8076000000000005e-09 -1.27203e-08 -2.9321e-09 2.90554 0.965183 0.102902 1.8076000000000005e-09 -1.27203e-08 -2.9321e-09 10.278600000000003 0.731801 0.0259123 1.8075899999999998e-09 -1.27203e-08 -2.93209e-09 2.22167 -0.733487 -0.20892000000000002 -9.64326e-15 -2.2013599999999997e-13 1.3352899999999997e-13 -55.6912 34.4756 -25.6978 28.2992 -38.3535 -81.0175 0.759154 -23.946700000000003 3.5785200000000006 -1.44094e-10 3.22268e-09 1.42293e-09 -2.7067699999999996e-10 5.61178e-09 2.44871e-09 -1.44105e-10 3.22268e-09 1.42293e-09 -7.730909999999999 5.47488 -0.417314 -1.44091e-10 3.22268e-09 1.42293e-09 -2.90554 0.965183 -0.102902 -1.4410000000000002e-10 3.22268e-09 1.42293e-09 -10.278600000000003 0.731801 -0.0259123 -1.4408499999999997e-10 3.22268e-09 1.42292e-09 -2.22167 -0.733487 0.20892000000000002 -2.03217e-16 0.0 -3.88251e-19 -2.63792 -0.9958670000000001 -8.26948 -0.20707100000000003 45.5339 2.2737099999999995 -13.9449 -20.9072 -34.1948 2.03217e-16 0.0 3.88251e-19 57.28540000000001 -55.4298 51.5521 1.34246 61.2435 -0.947149 0.383688 2.89864 -0.634297
-21.3887 59.5853 -11.5339 -13.633799999999999 -24.0868 8.7434 10.7611 7.45091 8.04354 -0.7201290000000001 -6.13215 2.21821 -0.710406 12.8589 2.64006 3.1266800000000003 -25.0906 5.96961 -0.0 0.0 0.0 -0.0 0.0 0.0 -4.28304e-14 -1.54159e-13 2.15022e-13 70.7225 45.4212 -17.013599999999997 -28.0824 -39.9559 83.84260000000002 -0.0350701 5.3372 0.752293 1.47414e-09 -9.649270000000001e-09 -2.74536e-09 2.53594e-09 -1.65566e-08 -4.75295e-09 1.47414e-09 -9.649270000000001e-09 -2.74537e-09 7.730909999999999 5.47488 0.417314 1.47414e-09 -9.649270000000001e-09 -2.74536e-09 2.90554 0.965183 0.102902 1.47414e-09 -9.649270000000001e-09 -2.74536e-09 10.278600000000003 0.731801 0.0259123 1.4741299999999997e-09 -9.649260000000001e-09 -2.7453500000000002e-09 2.22167 -0.733487 -0.20892000000000002 -4.29655e-14 -1.54158e-13 2.14861e-13 -55.7079 34.573800000000006 -25.865 28.3048 -38.2896 -80.91139999999999 0.7793360000000001 -24.2402 3.6280899999999994 -5.61326e-10 2.16118e-09 1.9036099999999999e-10 -9.69503e-10 3.7032e-09 3.12391e-10 -5.613400000000002e-10 2.16118e-09 1.9037e-10 -7.730909999999999 5.47488 -0.417314 -5.61327e-10 2.16118e-09 1.90372e-10 -2.90554 0.965183 -0.102902 -5.61331e-10 2.16118e-09 1.90365e-10 -10.278600000000003 0.731801 -0.0259123 -5.61317e-10 2.16118e-09 1.9035400000000003e-10 -2.22167 -0.733487 0.20892000000000002 -2.03217e-16 0.0 -3.88251e-19 -2.23625 -0.545198 -8.43745 -0.19431299999999999 45.1012 2.2789399999999995 -13.934399999999998 -20.6934 -34.46 2.03217e-16 0.0 3.88251e-19 58.461000000000006 -55.7595 52.7133 1.40515 62.0218 -1.00595 0.393059 2.64592 -1.0619599999999998
-21.3333 59.42470000000001 -11.2063 -13.6493 -23.7163 8.7555 10.7347 7.240409999999999 8.16587 -0.606814 -6.23956 2.25204 -0.806189 12.9023 2.58659 3.2536 -25.0317 5.89378 -0.0 0.0 0.0 -0.0 0.0 0.0 -5.8525e-14 1.54653e-13 2.4211900000000006e-13 70.7688 45.8456 -17.0434 -28.0674 -40.0434 83.9994 -0.0335148 5.21821 0.735426 -6.15858e-10 5.70012e-09 4.73888e-10 -1.0670099999999998e-09 9.85778e-09 8.24086e-10 -6.15847e-10 5.70012e-09 4.738859999999999e-10 7.730909999999999 5.47488 0.417314 -6.15854e-10 5.70011e-09 4.73895e-10 2.90554 0.965183 0.102902 -6.15846e-10 5.70012e-09 4.73895e-10 10.278600000000003 0.731801 0.0259123 -6.15865e-10 5.70012e-09 4.73903e-10 2.22167 -0.733487 -0.20892000000000002 -5.85906e-14 1.5465499999999999e-13 2.42055e-13 -55.8598 34.7089 -25.8697 28.3034 -38.2915 -80.9223 0.802246 -24.5669 3.68356 -1.05295e-09 -1.7129099999999998e-09 -2.59442e-09 -1.77281e-09 -3.12573e-09 -4.50005e-09 -1.05296e-09 -1.7129099999999998e-09 -2.59441e-09 -7.730909999999999 5.47488 -0.417314 -1.05295e-09 -1.7129099999999998e-09 -2.59441e-09 -2.90554 0.965183 -0.102902 -1.05296e-09 -1.7129099999999998e-09 -2.59442e-09 -10.278600000000003 0.731801 -0.0259123 -1.05295e-09 -1.7129e-09 -2.59442e-09 -2.22167 -0.733487 0.20892000000000002 -2.03217e-16 0.0 -3.88251e-19 -2.11367 -0.186552 -8.41442 -0.187088 44.9527 2.296 -14.0875 -20.6485 -34.8274 2.03217e-16 0.0 3.88251e-19 58.8725 -56.07229999999999 53.306799999999996 1.45838 62.643 -1.05375 0.388803 2.3078 -1.39679
-21.3067 59.2588 -10.9004 -13.766900000000001 -23.4509 8.837799999999998 10.8423 6.92862 8.29609 -0.607317 -6.17955 2.28262 -0.852285 12.8481 2.5152999999999994 3.38007 -24.9116 5.779609999999999 -0.0 0.0 0.0 -0.0 0.0 0.0 -8.61863e-15 2.72794e-13 -1.13719e-13 70.6604 46.1977 -16.7588 -28.0702 -40.0279 83.9711 -0.03357210000000001 5.222899999999999 0.736091 -1.60347e-09 8.82896e-09 2.86924e-09 -2.76154e-09 1.51237e-08 4.967990000000001e-09 -1.60346e-09 8.82896e-09 2.86924e-09 7.730909999999999 5.47488 0.417314 -1.60346e-09 8.82895e-09 2.8692499999999998e-09 2.90554 0.965183 0.102902 -1.60345e-09 8.82895e-09 2.8692499999999998e-09 10.278600000000003 0.731801 0.0259123 -1.60347e-09 8.82896e-09 2.8692499999999998e-09 2.22167 -0.733487 -0.20892000000000002 -8.65137e-15 2.72795e-13 -1.13798e-13 -55.87499999999999 34.73759999999999 -25.971 28.303100000000004 -38.2948 -80.9277 0.817396 -24.7785 3.71968 -3.7549900000000004e-10 -3.4388999999999998e-09 -2.30913e-09 -6.10115e-10 -6.05643e-09 -3.990939999999999e-09 -3.7551299999999995e-10 -3.4388999999999998e-09 -2.30911e-09 -7.730909999999999 5.47488 -0.417314 -3.75498e-10 -3.4388999999999998e-09 -2.30912e-09 -2.90554 0.965183 -0.102902 -3.75503e-10 -3.4388999999999998e-09 -2.30912e-09 -10.278600000000003 0.731801 -0.0259123 -3.75494e-10 -3.4388999999999998e-09 -2.30912e-09 -2.22167 -0.733487 0.20892000000000002 -2.03217e-16 0.0 -3.88251e-19 -1.90371 0.0671809 -8.3562 -0.180463 44.8486 2.31601 -14.247899999999998 -20.6139 -35.19989999999999 2.03217e-16 0.0 3.88251e-19 59.465 -56.4085 53.9047 1.51456 63.2861 -1.1102200000000002 0.385395 1.9348 -1.56143
